# xmcd CD database file
# Copyright (C) 1993-1998 Ti Kan
#
# Track frame offsets:
#  182
#  12977
#  24797
#  39115
#  53555
#  63340
#  75705
#  87220
#  97270
#  107265
#  118842
#  130380
#
# Disc length: 1939 seconds
#
# Revision: 1
# Processed by: cddbd v1.4b41PL1 Copyright (c) Steve Scherf et al.
# Submitted via: CDWizzard Release:4.35
#
DISCID=8a07910c
DTITLE=Baby Washington - Only Those In Love
DYEAR=1900
DGENRE=
TTITLE0=Only Those In Love
TTITLE1=I Can't Wait Until I See My Baby's Face
TTITLE2=Who's Going To Take Care Of Me
TTITLE3=It'll Never Be Over For Me
TTITLE4=Your Fool
TTITLE5=Hey Lonely
TTITLE6=Careless Hands
TTITLE7=Go On
TTITLE8=Run My Heart
TTITLE9=Money's Funny
TTITLE10=White Christmas
TTITLE11=Silent Night
EXTD=
EXTT0=
EXTT1=
EXTT2=
EXTT3=
EXTT4=
EXTT5=
EXTT6=
EXTT7=
EXTT8=
EXTT9=
EXTT10=
EXTT11=
PLAYORDER=
